<svg width="28" height="28" viewBox="0 0 28 28" fill="none" xmlns="http://www.w3.org/2000/svg">
<path fill-rule="evenodd" clip-rule="evenodd" d="M9.9097 7.66748C9.9097 7.66748 9.90971 7.66747 9.90971 7.66747L10.7265 9.1353C10.7265 9.1353 10.7264 9.13531 10.7264 9.13531L9.9097 7.66748ZM9.18467 8.42113C8.90525 8.76118 8.65534 9.13276 8.43492 9.53588C6.88461 9.72138 5.59117 10.3869 4.55458 11.5323C3.51819 12.6776 3 14.0232 3 15.569C3 17.248 3.59082 18.6783 4.77246 19.8597C5.9539 21.0413 7.38414 21.6322 9.06317 21.6322H16.5357L15.6275 20H9.06317C7.83739 20 6.79244 19.5679 5.92833 18.7038C5.06422 17.8397 4.63217 16.7948 4.63217 15.569C4.63217 14.3566 5.05781 13.3238 5.90908 12.4706C6.76056 11.6172 7.79247 11.1711 9.00483 11.1322H9.51088L9.70046 10.65C9.80514 10.4164 9.92331 10.1948 10.055 9.98522L9.18467 8.42113ZM16.7719 20L17.68 21.6322H17.6801L16.7719 20H16.7719ZM18.6751 20L19.5839 21.6322H20.7298C22.0841 21.6322 23.2397 21.1547 24.1966 20.1998C25.1536 19.2447 25.6322 18.09 25.6322 16.7357C25.6322 15.4531 25.1939 14.342 24.3173 13.4022C23.4408 12.4627 22.3122 11.9419 20.9317 11.84C20.697 10.1754 19.9594 8.7859 18.7191 7.67154C17.4787 6.55718 16.0101 6 14.3132 6C13.2235 6 12.2135 6.2413 11.2833 6.72391L12.0781 8.15139C12.7658 7.80524 13.5108 7.63217 14.3132 7.63217C15.7005 7.63217 16.884 8.12207 17.8636 9.10188C18.8434 10.0815 19.3333 11.265 19.3333 12.6523V13.4655H20.7298C21.6369 13.4655 22.4088 13.7837 23.0454 14.4201C23.6818 15.0567 24 15.8286 24 16.7357C24 17.6428 23.6818 18.4136 23.0454 19.0483C22.4088 19.6828 21.6369 20 20.7298 20H18.6751Z" fill="#D4D4D4"/>
<path d="M19.4567 24.3617C19.6743 24.4346 19.8837 24.4149 20.085 24.3028C20.2959 24.1908 20.4379 24.0278 20.5108 23.8139C20.5837 23.6 20.5641 23.3925 20.4519 23.1912L10.5896 5.478C10.4774 5.26723 10.3144 5.12343 10.1005 5.04663C9.88658 4.97002 9.67911 4.98781 9.47805 5.10001C9.26708 5.2122 9.12329 5.37524 9.04668 5.58913C8.97007 5.80302 8.98776 6.01059 9.09976 6.21184L18.9621 23.9361C19.0742 24.1469 19.2391 24.2888 19.4567 24.3617Z" fill="#D4D4D4"/>
</svg>
