<svg width="28" height="28" viewBox="0 0 28 28" fill="none" xmlns="http://www.w3.org/2000/svg">
<path d="M9.06317 21.6322C7.38414 21.6322 5.9539 21.0413 4.77246 19.8597C3.59082 18.6783 3 17.248 3 15.569C3 14.0232 3.51819 12.6776 4.55458 11.5323C5.59117 10.3869 6.88461 9.72138 8.43492 9.53588C9.03478 8.43882 9.8531 7.57529 10.8899 6.94529C11.9268 6.3151 13.0679 6 14.3132 6C16.0101 6 17.4787 6.55718 18.7191 7.67154C19.9594 8.7859 20.697 10.1754 20.9317 11.84C22.3122 11.9419 23.4408 12.4627 24.3173 13.4022C25.1939 14.342 25.6322 15.4531 25.6322 16.7357C25.6322 18.09 25.1536 19.2447 24.1966 20.1998C23.2397 21.1547 22.0841 21.6322 20.7298 21.6322H9.06317ZM9.06317 20H20.7298C21.6369 20 22.4088 19.6828 23.0454 19.0483C23.6818 18.4136 24 17.6428 24 16.7357C24 15.8286 23.6818 15.0567 23.0454 14.4201C22.4088 13.7837 21.6369 13.4655 20.7298 13.4655H19.3333V12.6523C19.3333 11.265 18.8434 10.0815 17.8636 9.10188C16.884 8.12207 15.7005 7.63217 14.3132 7.63217C13.3044 7.63217 12.3862 7.90575 11.5587 8.45292C10.7311 8.99989 10.1117 9.73226 9.70046 10.65L9.51088 11.1322H9.00483C7.79247 11.1711 6.76056 11.6172 5.90908 12.4706C5.05781 13.3238 4.63217 14.3566 4.63217 15.569C4.63217 16.7948 5.06422 17.8397 5.92833 18.7038C6.79244 19.5679 7.83739 20 9.06317 20Z" fill="#D4D4D4"/>
</svg>
