<svg width="28" height="28" viewBox="0 0 28 28" fill="none" xmlns="http://www.w3.org/2000/svg">
<path d="M23.184 25.3344C22.9829 25.4466 22.7755 25.4663 22.5616 25.3933C22.3477 25.3204 22.1847 25.1786 22.0725 24.9678L20.2102 21.2435C20.098 21.0423 20.0783 20.8347 20.1512 20.6208C20.2242 20.4069 20.3661 20.2439 20.5771 20.1317C20.7783 20.0195 20.9877 20.0017 21.2053 20.0783C21.4229 20.1551 21.5878 20.2989 21.7 20.5097L23.5623 24.2229C23.6743 24.4241 23.692 24.6317 23.6154 24.8456C23.5388 25.0595 23.395 25.2224 23.184 25.3344ZM9.17291 25.3344C8.97166 25.4466 8.76225 25.4663 8.54466 25.3933C8.32708 25.3204 8.16219 25.1786 8.05 24.9678L6.1877 21.2435C6.0757 21.0423 6.05801 20.8347 6.13462 20.6208C6.21123 20.4069 6.35502 20.2439 6.566 20.1317C6.76705 20.0195 6.97452 20.0017 7.18841 20.0783C7.4023 20.1551 7.56534 20.2989 7.67754 20.5097L9.53983 24.2229C9.65202 24.4241 9.67166 24.6317 9.59875 24.8456C9.52583 25.0595 9.38388 25.2224 9.17291 25.3344ZM8.75 18.3131C7.07097 18.3131 5.64073 17.7223 4.45929 16.5407C3.27765 15.3592 2.68683 13.929 2.68683 12.25C2.68683 10.7041 3.20502 9.35858 4.24141 8.2133C5.278 7.06783 6.57144 6.40235 8.12175 6.21685C8.72161 5.11979 9.53993 4.25626 10.5767 3.62626C11.6137 2.99607 12.7548 2.68097 14 2.68097C15.6969 2.68097 17.1656 3.23815 18.4059 4.35251C19.6463 5.46687 20.3838 6.85637 20.6185 8.52101C21.9991 8.6229 23.1276 9.14362 24.0042 10.0832C24.8807 11.0229 25.319 12.1341 25.319 13.4166C25.319 14.7709 24.8405 15.9257 23.8834 16.8808C22.9266 17.8357 21.771 18.3131 20.4167 18.3131H8.75ZM8.75 16.681H20.4167C21.3237 16.681 22.0956 16.3637 22.7322 15.7293C23.3686 15.0946 23.6868 14.3237 23.6868 13.4166C23.6868 12.5096 23.3686 11.7377 22.7322 11.1011C22.0956 10.4647 21.3237 10.1465 20.4167 10.1465H19.0202V9.3333C19.0202 7.94594 18.5303 6.76246 17.5505 5.78285C16.5708 4.80304 15.3874 4.31314 14 4.31314C12.9912 4.31314 12.0731 4.58672 11.2455 5.13389C10.4179 5.68086 9.79854 6.41323 9.38729 7.33101L9.1977 7.81314H8.69166C7.4793 7.85203 6.44738 8.29818 5.59591 9.1516C4.74463 10.0048 4.319 11.0376 4.319 12.25C4.319 13.4757 4.75105 14.5207 5.61516 15.3848C6.47927 16.2489 7.52422 16.681 8.75 16.681Z" fill="#FE4749"/>
<path d="M11.9577 21.9521H14.0801L13.0839 20.1914C12.9648 19.9925 13.0513 19.8333 13.2788 19.8333H15.5636C15.856 19.8333 15.9643 19.9229 16.0508 20.1218L17.4585 23.0661C17.5668 23.295 17.4585 23.4342 17.1879 23.4342H15.4012L16.798 26.5477C16.8522 26.677 16.8196 26.7764 16.733 26.8163C16.6356 26.8561 16.5273 26.8262 16.4082 26.7267L11.7952 22.4295C11.5678 22.2206 11.6545 21.9521 11.9577 21.9521Z" fill="#FE4749"/>
</svg>
