<svg width="28" height="28" viewBox="0 0 28 28" fill="none" xmlns="http://www.w3.org/2000/svg">
<path d="M19.6729 25.3344C19.4717 25.4466 19.2641 25.4663 19.0502 25.3933C18.8363 25.3204 18.6734 25.1786 18.5614 24.9678L16.6991 21.2435C16.5869 21.0423 16.5672 20.8347 16.6402 20.6208C16.7131 20.4069 16.855 20.2439 17.066 20.1317C17.2671 20.0195 17.4764 20.0017 17.694 20.0783C17.9117 20.1551 18.0766 20.2989 18.1886 20.5097L20.0509 24.2229C20.1631 24.4241 20.1809 24.6317 20.1043 24.8456C20.0277 25.0595 19.8839 25.2224 19.6729 25.3344ZM12.6729 25.3344C12.4717 25.4466 12.2622 25.4663 12.0447 25.3933C11.8271 25.3204 11.6622 25.1786 11.55 24.9678L9.6877 21.2435C9.5757 21.0423 9.55801 20.8347 9.63462 20.6208C9.71123 20.4069 9.85502 20.2439 10.066 20.1317C10.2671 20.0195 10.4745 20.0017 10.6884 20.0783C10.9023 20.1551 11.0653 20.2989 11.1775 20.5097L13.0398 24.2229C13.152 24.4241 13.1717 24.6317 13.0987 24.8456C13.0258 25.0595 12.8839 25.2224 12.6729 25.3344ZM8.75 18.3131C7.07097 18.3131 5.64073 17.7223 4.45929 16.5407C3.27765 15.3592 2.68683 13.929 2.68683 12.25C2.68683 10.7041 3.20502 9.35858 4.24141 8.2133C5.278 7.06783 6.57144 6.40235 8.12175 6.21685C8.72161 5.11979 9.53993 4.25626 10.5767 3.62626C11.6137 2.99607 12.7548 2.68097 14 2.68097C15.6969 2.68097 17.1656 3.23815 18.4059 4.35251C19.6463 5.46687 20.3838 6.85637 20.6185 8.52101C21.9991 8.6229 23.1276 9.14362 24.0042 10.0832C24.8807 11.0229 25.319 12.1341 25.319 13.4166C25.319 14.7709 24.8405 15.9257 23.8834 16.8808C22.9266 17.8357 21.771 18.3131 20.4167 18.3131H8.75ZM8.75 16.681H20.4167C21.3237 16.681 22.0956 16.3637 22.7322 15.7293C23.3686 15.0946 23.6868 14.3237 23.6868 13.4166C23.6868 12.5096 23.3686 11.7377 22.7322 11.1011C22.0956 10.4647 21.3237 10.1465 20.4167 10.1465H19.0202V9.3333C19.0202 7.94594 18.5303 6.76246 17.5505 5.78285C16.5708 4.80304 15.3874 4.31314 14 4.31314C12.9912 4.31314 12.0731 4.58672 11.2455 5.13389C10.4179 5.68086 9.79854 6.41323 9.38729 7.33101L9.1977 7.81314H8.69166C7.4793 7.85203 6.44738 8.29818 5.59591 9.1516C4.74463 10.0048 4.319 11.0376 4.319 12.25C4.319 13.4757 4.75105 14.5207 5.61516 15.3848C6.47927 16.2489 7.52422 16.681 8.75 16.681Z" fill="#34CAFF"/>
</svg>
