<svg viewBox="0 0 22 22" fill="none" xmlns="http://www.w3.org/2000/svg">
<path d="M6.54905 14H14.7749C16.876 14 18.5 12.3946 18.5 10.3411C18.5 8.26087 16.8031 6.70234 14.5561 6.71572C13.7077 4.99666 12.15 4 10.314 4C7.86809 4 5.80667 5.94649 5.61445 8.44147C4.32855 8.79599 3.5 9.88629 3.5 11.204C3.5 12.8629 4.73288 14 6.54905 14Z" fill="#D4D4D4"/>
<path d="M5.52978 17.679H16.4702C16.7645 17.679 17 17.9687 17 18.355C17 18.7412 16.7645 19.0309 16.4702 19.0309H5.52978C5.23546 19.0309 5 18.7412 5 18.355C5 17.9687 5.23546 17.679 5.52978 17.679Z" fill="#D4D4D4"/>
<path d="M5.52978 15.3271H16.4702C16.7645 15.3271 17 15.6168 17 16.0031C17 16.3893 16.7645 16.679 16.4702 16.679H5.52978C5.23546 16.679 5 16.3893 5 16.0031C5 15.6168 5.23546 15.3271 5.52978 15.3271Z" fill="#D4D4D4"/>
</svg>
