<svg viewBox="0 0 22 22" fill="none" xmlns="http://www.w3.org/2000/svg">
<path d="M10.7702 5.21823C10.7702 4.88752 11.0511 4.67313 11.3283 4.67313C11.606 4.67313 11.8864 4.88776 11.8864 5.21823V6.03063C16.513 6.33614 20.1667 10.01 20.1667 14.4972H20.1041C19.874 13.6465 18.9782 13.012 17.9082 13.012C16.8382 13.012 15.9424 13.6465 15.7123 14.4972H15.538C15.0896 13.6465 13.3442 13.012 11.2593 13.012C9.17449 13.012 7.42906 13.6465 6.98064 14.4972H6.80638C6.57624 13.6465 5.68043 13.012 4.61044 13.012C3.54044 13.012 2.64464 13.6465 2.4145 14.4972H2.35715C2.35715 9.96717 6.08093 6.26604 10.7702 6.0228V5.21823Z" fill="#53ACFF"/>
<path d="M11.314 13.2863C11.0368 13.2863 10.7559 13.5007 10.7559 13.8314L10.7702 19.0059C10.7699 19.3477 10.4589 19.6788 10.0063 19.6788C9.55341 19.6788 9.24232 19.3479 9.24232 19.0059C9.24232 18.6751 8.96161 18.4608 8.6842 18.4608C8.40722 18.4608 8.12608 18.6748 8.12608 19.0059C8.12608 20.0095 8.99894 20.769 10.0063 20.769C11.0138 20.769 11.8865 20.0094 11.8865 19.0059L11.8721 13.8309C11.8719 13.5007 11.5916 13.2863 11.314 13.2863Z" fill="#53ACFF"/>
<path d="M12.2862 2.54519C12.2862 3.02334 11.8523 3.41094 11.317 3.41094C10.7817 3.41094 10.3478 3.02334 10.3478 2.54519C10.3478 2.06703 11.317 0.785713 11.317 0.785713C11.317 0.785713 12.2862 2.06703 12.2862 2.54519Z" fill="#ACD7FB"/>
<path d="M7.14821 4.66384C7.14821 5.14199 6.71428 5.5296 6.17899 5.5296C5.6437 5.5296 5.20976 5.14199 5.20976 4.66384C5.20976 4.18568 6.17899 2.90437 6.17899 2.90437C6.17899 2.90437 7.14821 4.18568 7.14821 4.66384Z" fill="#ACD7FB"/>
<path d="M16.0275 5.5296C16.5628 5.5296 16.9967 5.14199 16.9967 4.66384C16.9967 4.18568 16.0275 2.90437 16.0275 2.90437C16.0275 2.90437 15.0582 4.18568 15.0582 4.66384C15.0582 5.14199 15.4922 5.5296 16.0275 5.5296Z" fill="#ACD7FB"/>
</svg>
