<svg viewBox="0 0 22 22" fill="none" xmlns="http://www.w3.org/2000/svg">
<path d="M9.99096 19C12.8924 19 15.2989 17.4065 16.3955 14.8783C16.5554 14.4953 16.5402 14.1735 16.3498 13.9973C16.1823 13.8364 15.8853 13.8134 15.5807 13.9513C14.9486 14.2118 14.149 14.3803 13.2884 14.3803C9.89957 14.3803 7.66825 12.1969 7.66825 8.87967C7.66825 7.91437 7.87387 6.93375 8.15564 6.34384C8.32318 5.98377 8.31556 5.69265 8.15564 5.50878C7.9881 5.30959 7.66825 5.28661 7.27225 5.43983C4.7287 6.45876 3 9.09418 3 12.036C3 16.0351 5.92432 19 9.99096 19Z" fill="#FFC473"/>
<path d="M12.5114 5.61604C12.4962 5.7233 12.4277 5.79991 12.321 5.79991C12.2144 5.79991 12.1459 5.7233 12.123 5.6237C11.9022 4.36728 11.925 4.35196 10.6076 4.09914C10.501 4.07616 10.4248 4.00721 10.4248 3.89995C10.4248 3.78504 10.501 3.71609 10.6076 3.70077C11.925 3.46327 11.9098 3.44795 12.123 2.17621C12.1459 2.06895 12.2144 2 12.321 2C12.4277 2 12.4962 2.06895 12.5114 2.18387L12.512 2.18757C12.717 3.42498 12.7184 3.43289 14.0345 3.70077C14.1411 3.72375 14.2097 3.78504 14.2097 3.89995C14.2097 4.00721 14.1411 4.07616 14.0269 4.09914C12.7287 4.33591 12.7247 4.35948 12.5134 5.60446L12.5114 5.61604Z" fill="#D4D4D4"/>
<path d="M16.3039 10.8639C16.2887 11.0478 16.1592 11.1703 15.9917 11.1703C15.8241 11.1703 15.6947 11.0478 15.6718 10.8869C15.4205 8.87201 15.3596 8.87967 13.2577 8.46598C13.0978 8.43533 12.9836 8.32041 12.9836 8.15187C12.9836 7.97566 13.1054 7.85309 13.2654 7.8301C15.352 7.53898 15.4129 7.47769 15.6718 5.42452C15.6947 5.24831 15.8241 5.12573 15.9917 5.12573C16.1592 5.12573 16.2887 5.24831 16.3039 5.43218C16.5476 7.43939 16.639 7.4164 18.718 7.8301C18.8855 7.86075 18.9998 7.97566 18.9998 8.15187C18.9998 8.32808 18.8855 8.43533 18.6875 8.46598C16.6314 8.78008 16.5476 8.84903 16.3039 10.8639Z" fill="#D4D4D4"/>
</svg>
