<svg width="14" height="16" viewBox="0 0 14 16" fill="none" xmlns="http://www.w3.org/2000/svg">
<path d="M0.992188 8.67871C1.22656 8.67871 1.38037 8.5249 1.52686 8.31982C1.90771 7.75586 2.35449 7.4043 3.01367 7.4043C3.68018 7.4043 4.08301 7.75586 4.41992 8.33447C4.54443 8.53223 4.67627 8.67871 4.896 8.67871C5.11572 8.67871 5.25488 8.53223 5.37207 8.33447C5.59912 7.95361 5.96533 7.646 6.38281 7.48486V13.2783C6.38281 13.7983 6.00928 14.2085 5.45264 14.2085C4.896 14.2085 4.52246 13.791 4.52246 13.271C4.52246 12.8389 4.25146 12.5752 3.8999 12.5752C3.54834 12.5752 3.27734 12.8389 3.27734 13.2783C3.27734 14.4795 4.20752 15.439 5.45264 15.439C6.69775 15.439 7.62793 14.5015 7.62793 13.2856V7.48486C8.04541 7.646 8.41162 7.95361 8.63135 8.33447C8.75586 8.5249 8.8877 8.67871 9.10742 8.67871C9.32715 8.67871 9.46631 8.53223 9.5835 8.33447C9.93506 7.75586 10.3306 7.4043 10.9897 7.4043C11.6562 7.4043 12.103 7.78516 12.4839 8.35645C12.6304 8.56152 12.7842 8.67871 13.0112 8.67871C13.3188 8.67871 13.5972 8.43701 13.5972 8.04883C13.5972 5.55859 11.7148 2.09424 7.62793 1.77197V0.878418C7.62793 0.490234 7.36426 0.226562 7.00537 0.226562C6.64648 0.226562 6.38281 0.490234 6.38281 0.878418V1.77197C2.28857 2.09424 0.413574 5.55859 0.413574 8.04883C0.413574 8.43701 0.691895 8.67871 0.992188 8.67871Z" fill="white"/>
</svg>
