<svg viewBox="0 0 22 22" fill="none" xmlns="http://www.w3.org/2000/svg">
<path d="M7.67178 15.6391C7.93512 15.6391 8.13701 15.4083 8.13701 15.0888L8.12824 13.074L8.93581 12.6036L11.1303 11.1391L10.9811 13.7929V14.7337L9.24305 15.7278C8.96215 15.8876 8.87437 16.1805 9.01482 16.4112C9.16404 16.6864 9.44494 16.7219 9.71706 16.5621L10.9811 15.8343V17.4408C10.9811 17.7692 11.1918 18 11.499 18C11.8238 18 12.0169 17.7692 12.0169 17.4408V15.8343L13.2722 16.5621C13.5443 16.7219 13.8252 16.6864 13.9832 16.4201C14.1236 16.1805 14.0271 15.8876 13.7462 15.7278L12.0169 14.7337V13.7929L11.8677 11.1391L14.0622 12.5947L14.8698 13.0651L14.8522 15.0888C14.8522 15.4083 15.0541 15.6391 15.3262 15.6391C15.6422 15.6391 15.809 15.3994 15.809 15.0888V13.6243L17.1959 14.432C17.4768 14.5917 17.7665 14.5296 17.9157 14.2456C18.0738 13.9793 17.986 13.6686 17.7139 13.5178L16.3269 12.7101L17.5822 11.9734C17.8543 11.8136 17.9684 11.5473 17.8104 11.2811C17.67 11.0414 17.3891 10.9704 17.1082 11.1391L15.3877 12.1598L14.5801 11.6893L12.2276 10.5L14.5801 9.31065L15.3877 8.83136L17.1082 9.85207C17.3803 10.0207 17.6787 9.9497 17.8192 9.71894C17.9684 9.44379 17.8543 9.17752 17.5822 9.01775L16.3357 8.28107L17.7139 7.48225C17.9948 7.31361 18.0825 7.02959 17.9157 6.74556C17.7665 6.47929 17.4768 6.39941 17.1959 6.56805L15.809 7.37574L15.8002 5.90237C15.8002 5.59172 15.6422 5.35207 15.3262 5.36095C15.0541 5.36095 14.8522 5.58284 14.8522 5.90237L14.8698 7.92604L14.0622 8.39645L11.8677 9.85207L12.0169 7.19823V6.2574L13.7462 5.26331C14.0271 5.10355 14.1236 4.81065 13.9832 4.57988C13.8252 4.30473 13.5443 4.26923 13.2722 4.42899L12.0169 5.1568V3.5503C12.0169 3.22189 11.8238 3 11.499 3C11.1918 3 10.9811 3.22189 10.9811 3.5503V5.1568L9.71706 4.42899C9.44494 4.27811 9.16404 4.30473 9.01482 4.57988C8.87437 4.81065 8.96215 5.10355 9.24305 5.26331L10.9811 6.2574V7.19823L11.1303 9.86095L8.93581 8.39645L8.12824 7.91716L8.13701 5.90237C8.13701 5.58284 7.93512 5.36095 7.67178 5.36095C7.35577 5.36095 7.18899 5.59172 7.18899 5.90237L7.18021 7.36686L5.80206 6.56805C5.52994 6.40828 5.23148 6.47929 5.08226 6.74556C4.91547 7.02959 5.01203 7.32249 5.28415 7.48225L6.6623 8.28107L5.41582 9.01775C5.1437 9.17752 5.02081 9.43491 5.17881 9.71894C5.31049 9.9497 5.61772 10.0207 5.88984 9.85207L7.61033 8.84024L8.41791 9.31065L10.7704 10.5L8.41791 11.6893L7.61033 12.1598L5.88984 11.1391C5.60894 10.9704 5.31926 11.0414 5.18759 11.2722C5.03837 11.5562 5.1437 11.8136 5.41582 11.9734L6.6623 12.7101L5.28415 13.5178C5.01203 13.6686 4.92425 13.9793 5.08226 14.2456C5.24026 14.5296 5.52994 14.5828 5.80206 14.432L7.18021 13.6243L7.18899 15.0888C7.18899 15.3994 7.35577 15.6391 7.67178 15.6391Z" fill="#53ACFF"/>
</svg>
