<svg viewBox="0 0 22 22" fill="none" xmlns="http://www.w3.org/2000/svg">
<path d="M11.6433 3.64147C11.6433 3.29493 11.3475 3 11 3C10.6525 3 10.3567 3.29493 10.3567 3.64147V5.18986C10.3567 5.53641 10.6525 5.83134 11 5.83134C11.3475 5.83134 11.6433 5.53641 11.6433 5.18986V3.64147ZM14.6525 6.45069C14.4085 6.70138 14.4085 7.11429 14.6525 7.3576C14.9039 7.6083 15.3105 7.61567 15.5693 7.3576L16.671 6.25899C16.9224 6.0083 16.9224 5.59539 16.671 5.3447C16.427 5.10138 16.0129 5.10138 15.7616 5.3447L14.6525 6.45069ZM6.43068 7.3576C6.67468 7.6083 7.08872 7.6083 7.34011 7.3576C7.5841 7.12166 7.5841 6.69401 7.3475 6.45069L6.24584 5.3447C6.00924 5.10876 5.5878 5.10138 5.33641 5.3447C5.09242 5.58802 5.09242 6.0083 5.32902 6.25161L6.43068 7.3576ZM11 7.23963C8.93715 7.23963 7.22921 8.94286 7.22921 11C7.22921 13.0571 8.93715 14.7677 11 14.7677C13.0555 14.7677 14.7634 13.0571 14.7634 11C14.7634 8.94286 13.0555 7.23963 11 7.23963ZM18.3567 11.6415C18.7043 11.6415 19 11.3465 19 11C19 10.6535 18.7043 10.3585 18.3567 10.3585H16.8115C16.464 10.3585 16.1682 10.6535 16.1682 11C16.1682 11.3465 16.464 11.6415 16.8115 11.6415H18.3567ZM3.64325 10.3585C3.29575 10.3585 3 10.6535 3 11C3 11.3465 3.29575 11.6415 3.64325 11.6415H5.18854C5.53604 11.6415 5.83179 11.3465 5.83179 11C5.83179 10.6535 5.53604 10.3585 5.18854 10.3585H3.64325ZM15.5619 14.6498C15.3105 14.4065 14.9039 14.4065 14.6525 14.6498C14.4085 14.8931 14.4085 15.306 14.6525 15.5567L15.7616 16.6627C16.0129 16.906 16.427 16.8986 16.671 16.6553C16.9224 16.412 16.9224 15.9991 16.671 15.7484L15.5619 14.6498ZM5.32902 15.741C5.07763 15.9843 5.07763 16.4046 5.32163 16.6479C5.56562 16.8912 5.98706 16.8986 6.23845 16.6553L7.34011 15.5567C7.5841 15.3134 7.5841 14.9005 7.3475 14.6498C7.10351 14.4065 6.68207 14.4065 6.43068 14.6498L5.32902 15.741ZM11.6433 16.8101C11.6433 16.4636 11.3475 16.1687 11 16.1687C10.6525 16.1687 10.3567 16.4636 10.3567 16.8101V18.3585C10.3567 18.7051 10.6525 19 11 19C11.3475 19 11.6433 18.7051 11.6433 18.3585V16.8101Z" fill="#FD4749"/>
</svg>