<svg width="18" height="18" viewBox="0 0 18 18" fill="none" xmlns="http://www.w3.org/2000/svg">
<path d="M8.10645 17.2959C10.1353 17.2959 11.7759 15.6479 11.7759 13.6191C11.7759 12.5645 11.3438 11.6343 10.5161 10.8799C10.3696 10.748 10.333 10.6675 10.333 10.4624L10.3477 4.28809C10.3477 2.80859 9.43945 1.81982 8.10645 1.81982C6.75146 1.81982 5.85059 2.80859 5.85059 4.28809L5.85791 10.4624C5.85791 10.6675 5.82861 10.748 5.6748 10.8799C4.84717 11.627 4.41504 12.5645 4.41504 13.6191C4.41504 15.6479 6.06299 17.2959 8.10645 17.2959ZM8.10645 16.2192C6.66357 16.2192 5.49902 15.0474 5.49902 13.6118C5.49902 12.7476 5.90918 11.9712 6.6416 11.4805C6.854 11.334 6.94189 11.2021 6.94189 10.9238V4.33203C6.94189 3.46045 7.41064 2.90381 8.10645 2.90381C8.7876 2.90381 9.25635 3.46045 9.25635 4.33203V10.9238C9.25635 11.2021 9.33691 11.334 9.55664 11.4805C10.2891 11.9712 10.6992 12.7476 10.6992 13.6118C10.6992 15.0474 9.53467 16.2192 8.10645 16.2192ZM11.644 4.41992H13.1528C13.4019 4.41992 13.5703 4.22949 13.5703 4.00977C13.5703 3.79004 13.4019 3.59961 13.1528 3.59961H11.644C11.395 3.59961 11.2266 3.79004 11.2266 4.00977C11.2266 4.22949 11.395 4.41992 11.644 4.41992ZM11.644 6.36084H13.1528C13.4019 6.36084 13.5703 6.17041 13.5703 5.95068C13.5703 5.73096 13.4019 5.54053 13.1528 5.54053H11.644C11.395 5.54053 11.2266 5.73096 11.2266 5.95068C11.2266 6.17041 11.395 6.36084 11.644 6.36084ZM8.09912 15.2891C9.02197 15.2891 9.76904 14.542 9.76904 13.6118C9.76904 12.9673 9.40283 12.4326 8.86816 12.1396C8.64844 12.0225 8.5752 11.9346 8.5752 11.605V7.97217C8.5752 7.61328 8.36279 7.39355 8.09912 7.39355C7.83545 7.39355 7.62305 7.61328 7.62305 7.97217V11.605C7.62305 11.9346 7.5498 12.0225 7.32275 12.1396C6.78809 12.4326 6.4292 12.9673 6.4292 13.6118C6.4292 14.542 7.17627 15.2891 8.09912 15.2891ZM11.644 8.30176H13.1528C13.4019 8.30176 13.5703 8.11133 13.5703 7.8916C13.5703 7.67188 13.4019 7.48145 13.1528 7.48145H11.644C11.395 7.48145 11.2266 7.67188 11.2266 7.8916C11.2266 8.11133 11.395 8.30176 11.644 8.30176ZM11.644 10.2354H13.1528C13.4019 10.2354 13.5703 10.0449 13.5703 9.8252C13.5703 9.61279 13.4019 9.42236 13.1528 9.42236H11.644C11.395 9.42236 11.2266 9.61279 11.2266 9.8252C11.2266 10.0449 11.395 10.2354 11.644 10.2354Z" fill="white"/>
</svg>
