<svg viewBox="0 0 22 22" fill="none" xmlns="http://www.w3.org/2000/svg">
<path d="M14.3181 14.0153H11.7897L12.8717 12.0965C12.9969 11.8646 12.8944 11.6854 12.6325 11.6854H9.7168C9.38651 11.6854 9.27262 11.7908 9.17011 12.0122L7.53005 15.4807C7.40477 15.7442 7.51866 15.9129 7.82617 15.9129H9.92181L8.36147 19.4236C8.29314 19.5712 8.33869 19.6977 8.4412 19.7293C8.5437 19.7715 8.68037 19.7504 8.80566 19.6344L14.5003 14.5529C14.7623 14.3315 14.6598 14.0153 14.3181 14.0153Z" fill="#FB9200"/>
<path d="M14.4341 10.5333H6.97615C5.25921 10.5333 4.06689 9.51 4.06689 8.05201C4.06689 6.90213 4.85383 5.98883 6.0223 5.66422C6.2548 3.57902 8.13866 2 10.3981 2C12.127 2 13.5279 2.79777 14.3089 4.22824C16.3716 4.21174 17.9336 5.57069 17.9336 7.37529C17.9336 9.15238 16.4134 10.5333 14.4341 10.5333Z" fill="#D4D4D4"/>
<path d="M4.15543 15.0344C3.98437 15.3319 3.6125 15.4658 3.30012 15.2873C2.98775 15.1088 2.92081 14.7295 3.09187 14.432L3.96206 12.9296C4.15543 12.6024 4.49756 12.4834 4.80993 12.6693C5.12974 12.8478 5.20412 13.2345 5.02562 13.532L4.15543 15.0344Z" fill="#53ACFF"/>
<path d="M5.49418 16.9979C5.32312 17.2954 4.95124 17.4367 4.63887 17.2508C4.31906 17.0723 4.25956 16.693 4.43062 16.3955L5.30081 14.8931C5.49418 14.5733 5.83631 14.4543 6.14868 14.6328C6.46849 14.8113 6.53543 15.2055 6.36437 15.503L5.49418 16.9979Z" fill="#53ACFF"/>
<path d="M16.6994 15.0344C16.5283 15.3319 16.1564 15.4658 15.8441 15.2873C15.5317 15.1088 15.4648 14.7295 15.6358 14.432L16.506 12.9296C16.6994 12.6024 17.0415 12.4834 17.3539 12.6693C17.6737 12.8478 17.7481 13.2345 17.5696 13.532L16.6994 15.0344Z" fill="#53ACFF"/>
<path d="M18.0381 16.9979C17.8671 17.2954 17.4952 17.4367 17.1828 17.2508C16.863 17.0723 16.8035 16.693 16.9746 16.3955L17.8448 14.8931C18.0381 14.5733 18.3803 14.4543 18.6926 14.6328C19.0124 14.8113 19.0794 15.2055 18.9083 15.503L18.0381 16.9979Z" fill="#53ACFF"/>
</svg>
